# xmcd CD database file
#
# Track frame offsets:
#	150
#	9417
#	19801
#	32987
#	43553
#	53662
#	63515
#	76765
#	90938
#	101860
#	112712
#	125766
#
# Disc length: 1824 seconds
#
# Revision: 0
# Processed by: cddbd v1.5.2PL0 Copyright (c) Steve Scherf et al.
# Submitted via: CDex 1.51
#
DISCID=8b071e0c
DTITLE=Mickey Gilley - Classic Country
DYEAR=2000
DGENRE=Country
TTITLE0=Susie Q
TTITLE1=I'm To Blame
TTITLE2=That Heart Belongs To Me
TTITLE3=A New Way To Live
TTITLE4=That's How It Got To Be
TTITLE5=Night After Night
TTITLE6=She's Still Got A Hold On You
TTITLE7=I'll Make It All Up To You
TTITLE8=It's Just A Matter Of Making Up Your Mind
TTITLE9=There's No One Like You
TTITLE10=Turn Around Look At Me
TTITLE11=Without You
EXTD=YEAR: 2000
EXTT0=
EXTT1=
EXTT2=
EXTT3=
EXTT4=
EXTT5=
EXTT6=
EXTT7=
EXTT8=
EXTT9=
EXTT10=
EXTT11=
PLAYORDER=
